<?xml version="1.0" encoding="UTF-8"?>
<svg width="786px" height="105px" viewBox="0 0 786 105" version="1.1" xmlns="http://www.w3.org/2000/svg" xmlns:xlink="http://www.w3.org/1999/xlink">
    <!-- Generator: Sketch 50.2 (55047) - http://www.bohemiancoding.com/sketch -->
    <title>logotype-full-color-black</title>
    <desc>Created with Sketch.</desc>
    <defs></defs>
    <g id="Color-Exploration" stroke="none" stroke-width="1" fill="none" fill-rule="evenodd">
        <g id="logotype-full-color" transform="translate(-127.000000, -196.000000)">
            <g id="logotype-full-color-black" transform="translate(127.000000, 196.000000)">
                <path d="M207,80.7200311 C207,82.2698589 206.457381,83 204.827245,83 L197.675165,83 C196.498731,83 196.045028,82.7267711 195.593606,81.9070844 L178.120369,51.7256231 C175.674025,47.6225975 174.588787,44.6147835 174.497591,44.3415546 L174.497591,80.7200311 C174.497591,82.2698589 173.954972,83 172.324835,83 L165.172755,83 C163.542619,83 163,82.2698589 163,80.7200311 L163,23.2776729 C163,21.7278451 163.542619,21 165.172755,21 L172.324835,21 C173.321157,21 173.863775,21.2732289 174.226281,21.9115283 L192.42453,53.3672925 C193.96347,56.012332 195.502409,59.750287 195.502409,59.750287 L195.502409,23.2776729 C195.502409,21.7278451 196.045028,21 197.675165,21 L204.827245,21 C206.457381,21 207,21.7278451 207,23.2776729 L207,80.7200311 Z" id="Fill-1" fill="#3D4046"></path>
                <path d="M248.244324,70.5592573 L248.244324,65.3459899 L238.03756,65.3459899 C234.483092,65.3459899 233.663889,67.0845133 233.663889,69.4608789 L233.663889,70.9253834 C233.663889,73.6678752 235.48587,74.4922346 238.221135,74.4922346 C242.411232,74.4922346 246.146981,72.1135662 248.244324,70.5592573 Z M223.275845,50.1690265 C223.275845,42.029053 228.652295,37 241.683816,37 C254.986111,37 260,42.029053 260,50.1690265 L260,80.8913821 C260,82.5377982 259.362077,83.2700505 257.81087,83.2700505 L250.977295,83.2700505 C249.338889,83.2700505 248.974034,82.5377982 248.790459,80.8913821 L248.609179,78.970947 C245.9657,81.165401 241.502536,84 235.123309,84 C226.192391,84 222,78.6071236 222,72.5717995 L222,68.4569105 C222,62.3294792 226.646739,56.9343001 235.669444,56.9343001 L248.244324,56.9343001 L248.244324,51.0831904 C248.244324,47.7903581 246.695411,45.9620303 241.408454,45.9620303 C236.21558,45.9620303 234.393599,47.424232 234.393599,50.7170643 L234.393599,51.3572093 C234.393599,53.0013228 233.755676,53.6414678 232.206763,53.6414678 L225.462681,53.6414678 C223.821981,53.6414678 223.275845,53.0013228 223.275845,51.3572093 L223.275845,50.1690265 Z" id="Fill-3" fill="#3D4046"></path>
                <path d="M311,50.4407427 L311,51.9950517 C311,53.6414678 310.352736,54.1895057 308.781141,54.1895057 L301.661234,54.1895057 C299.996508,54.1895057 299.351572,53.6414678 299.351572,51.9950517 L299.351572,51.3549067 C299.351572,47.9722699 297.500582,46.5077654 292.231665,46.5077654 C286.960419,46.5077654 285.111758,47.9722699 285.111758,51.3549067 L285.111758,69.5506835 C285.111758,72.9356229 286.960419,74.4899319 292.231665,74.4899319 C297.500582,74.4899319 299.351572,72.9356229 299.351572,69.5506835 L299.351572,68.1805889 C299.351572,66.5341727 299.996508,65.8940277 301.661234,65.8940277 L308.781141,65.8940277 C310.352736,65.8940277 311,66.5341727 311,68.1805889 L311,70.4671501 C311,78.6969281 305.454016,84 291.954598,84 C278.362049,84 273,78.6969281 273,70.4671501 L273,50.4407427 C273,42.3030719 278.45518,37 292.045402,37 C305.54482,37 311,42.3030719 311,50.4407427" id="Fill-5" fill="#3D4046"></path>
                <path d="M336.101192,41.4315873 C338.778715,39.4164565 343.491713,36.6704374 350.603082,36.6704374 C359.103228,36.6704374 364,41.7981843 364,48.9387564 L364,80.6182722 C364,82.266806 363.350974,83 361.690026,83 L354.206455,83 C352.543181,83 351.803431,82.266806 351.803431,80.6182722 L351.803431,51.9591469 C351.803431,48.664385 350.789183,47.108077 346.815935,47.108077 C342.198313,47.108077 338.038965,49.7641761 336.101192,51.2282585 L336.101192,80.6182722 C336.101192,82.266806 335.547543,83 333.974993,83 L326.309974,83 C324.6467,83 324,82.266806 324,80.6182722 L324,21.3794221 C324,19.7308884 324.6467,19 326.309974,19 L333.974993,19 C335.547543,19 336.101192,19.7308884 336.101192,21.3794221 L336.101192,41.4315873 Z" id="Fill-7" fill="#3D4046"></path>
                <path d="M404.173827,51.4470139 C404.173827,48.0620744 401.557155,46.5077654 396.498863,46.5077654 C391.442845,46.5077654 388.826173,48.0620744 388.826173,51.4470139 L388.826173,69.4608789 C388.826173,72.9356229 391.442845,74.4899319 396.498863,74.4899319 C401.557155,74.4899319 404.173827,72.9356229 404.173827,69.4608789 L404.173827,51.4470139 Z M377,50.4407427 C377,42.3030719 383.229088,37 396.498863,37 C409.770912,37 416,42.3030719 416,50.4407427 L416,70.4671501 C416,78.6946254 409.770912,84 396.498863,84 C383.229088,84 377,78.6946254 377,70.4671501 L377,50.4407427 Z" id="Fill-9" fill="#3D4046"></path>
                <path d="M489.954315,39.1090544 L490.131445,42.591071 C492.654422,40.3920241 497.89113,37 505.553166,37 C513.939621,37 518,41.7649862 518,48.2721344 L518,81.6270379 C518,82.5431151 517.636655,83 516.735106,83 L513.128907,83 C512.227358,83 511.773177,82.5431151 511.773177,81.6270379 L511.773177,49.6450966 C511.773177,45.5239027 509.609003,42.6810635 503.838632,42.6810635 C497.168982,42.6810635 492.295618,46.1653875 490.222282,47.8129421 L490.222282,81.6270379 C490.222282,82.5431151 489.863478,83 488.961929,83 L485.35346,83 C484.358803,83 484,82.5431151 484,81.6270379 L484,39.1090544 C484,38.1929772 484.358803,37.7337848 485.35346,37.7337848 L488.598584,37.7337848 C489.595512,37.7337848 489.863478,38.1929772 489.954315,39.1090544" id="Fill-11" fill="#3D4046"></path>
                <path d="M560.749813,73.4944453 L560.749813,62.7127339 L546.143674,62.7127339 C541.175458,62.7127339 539.157626,65.2932899 539.157626,69.3474547 L539.157626,72.296993 C539.157626,76.3511579 541.635949,78.6555572 547.150276,78.6555572 C553.766079,78.6555572 558.63942,75.1537056 560.749813,73.4944453 Z M533.918669,48.7053276 C533.918669,41.7921296 538.053835,37 550.459334,37 C563.049956,37 567,41.7921296 567,48.7053276 L567,81.8812522 C567,82.8025478 566.63207,83.2620353 565.713401,83.2620353 L562.404342,83.2620353 C561.390798,83.2620353 561.117743,82.8025478 561.025182,81.8812522 L560.844688,78.5627314 C558.178929,80.6814793 553.032532,84 545.680868,84 C537.132852,84 533,79.1150447 533,73.1254629 L533,68.5166642 C533,62.5270824 536.952358,57.6421271 544.945008,57.6421271 L560.749813,57.6421271 L560.749813,49.3504666 C560.749813,45.203476 558.546859,42.2539377 550.366773,42.2539377 C542.189002,42.2539377 539.893487,45.0178245 539.893487,49.1648151 L539.893487,50.2717622 C539.893487,51.2858836 539.525556,51.7453711 538.514327,51.7453711 L535.205268,51.7453711 C534.284285,51.7453711 533.918669,51.2858836 533.918669,50.2717622 L533.918669,48.7053276 Z" id="Fill-13" fill="#3D4046"></path>
                <path d="M588,81.6258871 C588,82.5411938 587.651698,83 586.779847,83 L583.301205,83 C582.348302,83 582,82.5411938 582,81.6258871 L582,20.3741129 C582,19.4588062 582.348302,19 583.301205,19 L586.779847,19 C587.651698,19 588,19.4588062 588,20.3741129 L588,81.6258871 Z" id="Fill-15" fill="#3D4046"></path>
                <path d="M669.670404,38.053691 C670.592446,38.053691 671.055795,38.4194635 671.055795,39.3327445 L671.055795,41.8908516 C671.055795,42.8041326 670.592446,43.2619233 669.670404,43.2619233 L659.313729,43.2619233 L659.313729,70.5752372 C659.313729,74.8678881 661.807434,77.6100316 670.038289,77.6100316 L671.614608,77.6100316 C672.531994,77.6100316 673,77.9758041 673,78.9811034 L673,81.6289282 C673,82.6342275 672.531994,83 671.614608,83 L669.204726,83 C656.538289,83 652.840807,78.6153309 652.840807,71.214764 L652.840807,43.2619233 L647.294584,43.2619233 C646.367885,43.2619233 646,42.8041326 646,41.8908516 L646,39.698517 C646,38.785236 646.367885,38.4194635 647.294584,38.3274453 L652.102708,38.053691 L652.840807,38.053691 L652.840807,28.3710718 C652.840807,27.4577907 653.301828,27 654.230855,27 L658.019145,27 C658.945843,27 659.313729,27.4577907 659.313729,28.3710718 L659.313729,38.053691 L669.670404,38.053691 Z" id="Fill-17" fill="#3D4046"></path>
                <path d="M692,81.6258871 C692,82.5411938 691.651698,83 690.782037,83 L687.301205,83 C686.348302,83 686,82.5411938 686,81.6258871 L686,39.1436651 C686,38.2283584 686.348302,37.7718578 687.301205,37.7718578 L690.782037,37.7718578 C691.651698,37.7718578 692,38.2283584 692,39.1436651 L692,81.6258871 Z M692,28.8885407 C692,29.8038474 691.651698,30.2626536 690.782037,30.2626536 L687.301205,30.2626536 C686.348302,30.2626536 686,29.8038474 686,28.8885407 L686,20.3741129 C686,19.4588062 686.348302,19 687.301205,19 L690.782037,19 C691.651698,19 692,19.4588062 692,20.3741129 L692,28.8885407 Z" id="Fill-19" fill="#3D4046"></path>
                <path d="M740,48.8886585 L740,50.6407446 C740,51.5620402 739.637011,52.0215277 738.641646,52.0215277 L735.285714,52.0215277 C734.290349,52.0215277 733.927361,51.5620402 733.927361,50.6407446 L733.927361,49.2576408 C733.927361,45.0201452 731.660394,42.2539377 723.590176,42.2539377 C715.519958,42.2539377 713.257558,45.0201452 713.257558,49.2576408 L713.257558,71.651854 C713.257558,75.9821755 715.519958,78.748383 723.590176,78.748383 C731.660394,78.748383 733.927361,75.9821755 733.927361,71.651854 L733.927361,69.6236113 C733.927361,68.6118106 734.290349,68.2405076 735.285714,68.2405076 L738.641646,68.2405076 C739.637011,68.2405076 740,68.6118106 740,69.6236113 L740,72.1113415 C740,79.2078704 735.829056,84 723.409824,84 C710.988309,84 707,79.2078704 707,72.1113415 L707,48.8886585 C707,41.7921296 711.081909,37 723.498859,37 C735.918091,37 740,41.7921296 740,48.8886585" id="Fill-21" fill="#3D4046"></path>
                <path d="M779.544673,47.5055547 C779.544673,43.913198 776.271226,41.7921296 769.456507,41.7921296 C762.728774,41.7921296 759.546892,43.913198 759.546892,47.5055547 L759.546892,49.9027798 C759.546892,52.7594924 762.183962,54.325927 764.184656,54.971066 L778.182644,59.5775441 C782.728843,61.0534736 786,64.0006913 786,68.3333333 L786,73.5849504 C786,79.1150447 781.09212,84 769.456507,84 C757.729329,84 753,79.1150447 753,73.5849504 L753,71.0972202 C753,70.2687503 753.363971,69.8069422 754.277331,69.8069422 L757.640053,69.8069422 C758.546546,69.8069422 758.818951,70.2687503 758.818951,71.0972202 L758.818951,73.3087938 C758.818951,76.9962968 762.454079,79.1150447 769.456507,79.1150447 C776.36508,79.1150447 780.183338,76.9962968 780.183338,73.3087938 L780.183338,69.8997679 C780.183338,67.1335605 777.912528,65.7527774 774.817633,64.738656 L760.821934,60.0393522 C757.640053,58.9324051 753.821795,55.7090308 753.821795,51.1002321 L753.821795,47.5055547 C753.821795,41.9777811 757.914748,37 769.550361,37 C781.09212,37 785.361335,41.9777811 785.361335,47.5055547 L785.361335,50.1789365 C785.361335,51.0074063 784.999653,51.3763887 784.09316,51.3763887 L780.728149,51.3763887 C779.908643,51.3763887 779.544673,51.0074063 779.544673,50.1789365 L779.544673,47.5055547 Z" id="Fill-23" fill="#3D4046"></path>
                <path d="M615,63.5304125 L606.654463,39.3702049 C606.374411,38.5471624 606.003343,38 605.076839,38 L601.272805,38 C600.353303,38 599.790866,38.5471624 600.073251,39.3702049 L611.877425,73 L615,63.5304125 Z" id="Fill-31" fill="#3D4046"></path>
                <path d="M635.712992,38 L632.179318,38 C631.255559,38 630.886055,38.5471854 630.60308,39.3702626 L610.081583,100.632036 C609.800947,101.452815 610.261657,102 611.19711,102 L614.071289,102 C615.002065,102 615.373907,101.360851 615.654543,100.632036 L636.919726,39.3702626 C637.200362,38.5471854 636.732635,38 635.712992,38" id="Fill-33" fill="#3D4046"></path>
                <path d="M452.615279,22.3683899 C452.338821,21.4568953 451.884969,21 450.963441,21 L447.033126,21 C446.028661,21 445.567897,21.4568953 445.296046,22.3683899 L427.088964,81.6316101 C426.81481,82.5431047 427.181117,83 428.093429,83 L431.754198,83 C432.668814,83 433.035121,82.5431047 433.309276,81.6316101 L446.572362,38.6880462 C447.671284,35.2234484 448.767902,28.4779292 448.862358,27.8373574 C449.04436,28.8406903 450.233131,35.9535624 451.15005,38.8694268 L457.828822,60.2057473 L446.915631,60.2057473 L445.312173,65.4014961 L459.201898,65.4014961 L464.231135,81.6316101 C464.502986,82.5431047 464.96375,83 465.878366,83 L469.815593,83 C470.817754,83 471.186365,82.5431047 470.91221,81.6316101 L452.615279,22.3683899 Z" id="Fill-35" fill="#3D4046"></path>
                <path d="M135.061989,96.0364161 L135.064294,96.0364161 L135.036638,95.9924656 C135.0182,95.9693338 135.004372,95.9415756 134.985935,95.9161306 L114.702322,65.511654 L114.700017,65.511654 C113.6606,63.9063051 111.858329,62.8399277 109.804847,62.8399277 C108.057888,62.8399277 106.497611,63.6125308 105.428233,64.8292651 L105.423623,64.8246387 L89.7862735,81.3615835 C89.5650229,81.6923687 89.1916624,81.9121211 88.765294,81.9121211 C88.0854093,81.9121211 87.5368921,81.3592704 87.5368921,80.6791946 C87.5368921,80.3599753 87.6636502,80.0685143 87.8664633,79.8487619 L87.8641586,79.8487619 L134.932927,9.18102309 C134.98363,9.1116276 135.029724,9.03991893 135.075818,8.97052344 L135.138044,8.88030931 L135.13113,8.88030931 C135.677343,7.99204706 135.997695,6.95111473 135.997695,5.83153419 C135.997695,2.61158354 133.388782,0 130.169124,0 C128.91537,0 127.756109,0.397867466 126.80427,1.07331688 L126.801966,1.0710037 L45.6629046,62.021061 L45.6629046,62.0187478 C45.4577868,62.1737311 45.2019658,62.2685716 44.9277072,62.2685716 C44.2409083,62.2685716 43.6877817,61.7134076 43.6877817,61.0263923 C43.6877817,60.6238985 43.881376,60.2676683 44.1809863,60.0409764 L81.1229283,23.4603014 L81.1206236,23.4579882 C82.1807829,22.4008636 82.8376207,20.9412452 82.8376207,19.3266435 C82.8376207,17.9641787 82.3628538,16.7104336 81.5769531,15.7157649 L81.5792578,15.7134517 L73.0518895,2.96781371 C72.0470429,1.21210786 70.1571937,0.0254450123 67.9884765,0.0254450123 C65.9396035,0.0254450123 64.1396373,1.08719598 63.1002203,2.69023176 L1.2168785,95.6084773 C1.04633113,95.8305428 0.887307236,96.0641743 0.751330283,96.3093717 L0.719064565,96.3556354 L0.723673954,96.3556354 C0.26273513,97.1883812 0,98.1460389 0,99.1638394 C0,102.38379 2.61121844,104.995374 5.83087612,104.995374 C7.10537197,104.995374 8.27846128,104.581314 9.23721403,103.889672 L9.26026097,103.91743 L67.1495679,60.4110857 C68.4678529,59.2452415 70.154889,58.493457 72.0170819,58.3523528 L72.1184884,58.3477265 C72.2613794,58.3384737 72.4042705,58.3315342 72.5494662,58.329221 C72.5955601,58.329221 72.641654,58.3245946 72.6900525,58.3245946 C77.2579563,58.3245946 80.9639044,62.0326269 80.9639044,66.6057896 C80.9639044,68.1810671 80.5214032,69.6476251 79.7585494,70.8990571 C79.7493306,70.9129362 79.7447212,70.9245021 79.7378072,70.9383812 C79.6894086,71.0170294 79.64101,71.0933645 79.588002,71.1696995 C79.498119,71.3108037 79.4036265,71.4495946 79.3045247,71.5814461 C79.3045247,71.5837593 79.30222,71.5837593 79.30222,71.5860724 L63.3652601,95.5599004 C62.5816641,96.5545691 62.1138112,97.8013747 62.1138112,99.1661526 C62.1138112,102.372224 64.6973733,104.972242 67.8985935,104.995374 L67.8985935,104.997687 L67.917031,104.997687 L67.9423826,104.997687 L67.9677343,104.997687 L130.176038,105 L130.199085,105 C133.404914,105 136,102.402296 136,99.1939108 C136,98.0303798 135.654296,96.945497 135.061989,96.0364161" id="Fill-25" fill="#E67E22"></path>
            </g>
        </g>
    </g>
</svg>